<svg xmlns="http://www.w3.org/2000/svg" version="1.1" >
<defs>
  <symbol id="ra-logo" viewBox="0 0 75.483253 28.32733">
 <g stroke-width=".26458px" transform="translate(-68.258 -66.646)">
  <g aria-label="ROOMS">
   <path d="m78.267 76.161c-0.29351-0.42898-0.56444-0.92569-0.56444-1.1289 0-0.2032 0.09031-0.18062 0.38382-0.4064 1.0612-0.76764 1.7836-1.7159 1.7836-3.1609 0-2.2804-2.5287-3.2286-4.8091-3.2286-2.0094 0-2.9351 0.06773-4.922 0.22578-0.47413 0.02258-0.79022 0.13547-0.79022 0.4064 0 0.2032 0.15804 0.31609 0.36124 0.38382 1.2869 0.36124 1.8514 0.38382 1.8514 1.6708v8.1506c0 0.83538-0.29351 1.2869-1.0612 1.6256-0.49671 0.22578-1.2418 0.33867-1.2418 0.67733 0 0.22578 0.49671 0.36124 0.74507 0.38382 0.15804 0 1.5127-0.13547 2.4836-0.13547 1.0837 0 2.5739 0.13547 2.7319 0.13547 0.24836-0.02258 0.72249-0.15804 0.72249-0.38382 0-0.33867-0.74507-0.45156-1.2418-0.67733-0.76764-0.33867-1.0612-0.79022-1.0612-1.6256v-2.71c0-0.45156 0.15804-0.6096 0.63218-0.6096 0.94827 0 1.603 0.29351 1.874 0.74507 1.174 1.9643 2.2352 3.2964 3.5673 4.6962 0.63218 0.67733 1.7611 1.0612 2.8674 1.0612 0.79022 0 1.5804-0.27093 1.5804-0.67733 0-0.18062-0.13547-0.36124-0.38382-0.38382-0.49671-0.04515-1.016-0.15804-1.2869-0.36124-1.6933-1.2192-3.1157-3.0254-4.222-4.6736zm-3.7028-1.2192c-0.65476 0-0.92569-0.18062-0.92569-0.58702v-4.3575c0-0.42898 0.49671-0.76764 1.1289-0.76764 1.5127 0 2.8448 1.0612 2.8448 2.5739 0 1.174-0.49671 1.9417-1.3772 2.6868-0.2032 0.22578-0.99342 0.45156-1.6708 0.45156z"/>
   <path d="m87.149 74.264c0-2.4836 1.8062-5.0123 4.2898-5.0123 2.9351 0 4.493 3.206 4.493 6.1412 0 2.6868-1.174 5.5541-3.8608 5.5541-3.1383 0-4.922-3.5447-4.922-6.683zm5.1477-6.0508c-4.4704 0-7.6764 2.5739-7.6764 6.8411 0 4.1092 3.0932 6.9314 7.1346 6.9314 3.8608 0 6.7056-3.4092 6.7056-7.27 0-3.2964-3.0932-6.5024-6.1637-6.5024z"/>
   <path d="m103.24 74.264c0-2.4836 1.8062-5.0123 4.2898-5.0123 2.9351 0 4.493 3.206 4.493 6.1412 0 2.6868-1.174 5.5541-3.8608 5.5541-3.1383 0-4.922-3.5447-4.922-6.683zm5.1477-6.0508c-4.4704 0-7.6764 2.5739-7.6764 6.8411 0 4.1092 3.0932 6.9314 7.1346 6.9314 3.8608 0 6.7056-3.4092 6.7056-7.27 0-3.2964-3.0932-6.5024-6.1637-6.5024z"/>
   <path d="m131.73 78.803-0.38382-7.4507c-0.0677-1.2869 0.18062-1.7385 0.88053-2.032 0.90311-0.38382 1.0837-0.45156 1.0837-0.67733 0-0.22578-0.0903-0.38382-0.36124-0.38382-0.72249 0-2.2804 0.22578-2.8674 0.22578-0.58702 0-0.90311 0-1.1515 0.51929l-3.5447 7.3604c-0.42897 0.85796-0.51929 0.49671-0.69991 0.02258l-2.6416-6.4798c-0.42898-1.016-0.8128-1.4224-1.4224-1.4224-1.0386 0-1.6933-0.11289-2.5061-0.11289-0.27093 0-0.76765-0.02258-0.76765 0.31609 0 0.36124 0.8128 0.69991 1.2192 1.0837 0.56445 0.51929 0.92569 0.94827 0.72249 2.5513l-0.76764 6.0057c-0.15805 1.1289-0.54187 2.032-1.3095 2.3707-0.51929 0.22578-1.2418 0.33867-1.2418 0.67733 0 0.22578 0.49671 0.36124 0.74507 0.38382 0.15804 0 1.016-0.13547 2.0772-0.13547 1.0837 0 2.0772 0.13547 2.2352 0.13547 0.24836-0.02258 0.72249-0.15804 0.72249-0.38382 0-0.33867-0.74507-0.45156-1.2418-0.67733-0.58702-0.27093-0.74506-1.3772-0.69991-1.9868l0.38382-6.2992c0.0226-0.56444 0.22578-0.88053 0.56445-0.02258l2.7771 7.112c0.47413 1.2192 0.65475 1.3998 0.88053 1.3998 0.2032 0 1.1515-1.9417 1.2418-2.1449l3.048-6.9991c0.15804-0.4064 0.56444-0.49671 0.58702-0.06773l0.29351 7.112c0.0452 0.83538-0.29351 1.5579-1.0612 1.8965-0.49671 0.22578-1.2418 0.33867-1.2418 0.67733 0 0.22578 0.49671 0.36124 0.74506 0.38382 0.15805 0 1.4901-0.13547 2.5513-0.13547 1.0837 0 2.5739 0.13547 2.7319 0.13547 0.24836-0.02258 0.72249-0.15804 0.72249-0.38382 0-0.33867-0.74507-0.45156-1.2418-0.67733-0.76764-0.33867-1.016-1.0612-1.0612-1.8965z"/>
   <path d="m139.26 68.146c-2.2126 0-4.0188 1.6708-4.0188 3.7931 0 1.1063 0.51929 1.9191 1.3321 2.5964l3.048 2.5739c0.56445 0.47413 0.90311 1.0386 0.90311 1.8062 0 1.1289-0.83537 2.1675-1.9643 2.1675-1.3095 0-2.19-0.65476-2.4384-1.4676-0.2032-0.67733-0.4064-1.0612-0.76765-1.0612-0.22578 0-0.38382 0.27093-0.42898 0.54187-0.0677 0.29351-0.13546 1.2418-0.13546 1.5579 0 0.31609 0.2032 0.42898 1.0386 0.8128 0.54186 0.24836 1.5804 0.49671 2.3707 0.49671 2.2578 0 4.5381-1.6482 4.5381-3.8608 0-0.94827-0.38383-1.7159-1.0837-2.3029l-3.1835-2.6868c-0.67734-0.56444-1.1515-1.1515-1.1515-1.8965 0-0.99342 0.88053-1.7836 1.8514-1.7836 0.65475 0 1.5579 0.27093 1.7836 0.8128 0.33867 0.8128 0.63218 1.0386 0.90311 1.0386 0.33867 0 0.45156-0.31609 0.45156-0.6096 0-0.42898-0.0452-0.92569-0.0903-1.2869-0.0677-0.24836-0.27094-0.42898-0.67734-0.65476-0.51929-0.24836-1.5579-0.58702-2.2804-0.58702z"/>
  </g>
  <g aria-label="ADMIN">
   <path d="m91.403 90.478 0.74083-2.1061c0.04233-0.10583 0.08467-0.13758 0.11642-0.03175l0.64558 1.9791c0.10583 0.33867 0.09525 0.381-0.11642 0.381h-1.2912c-0.1905 0-0.15875-0.05292-0.09525-0.22225zm3.0162 2.8363c0.34925 0 0.73025 0.0635 0.97367 0.0635 0.20108 0 0.30692-0.05292 0.30692-0.16933 0-0.10583-0.09525-0.21167-0.42333-0.32808-0.51858-0.1905-0.635-0.47625-0.94192-1.3335l-1.397-3.9476c-0.14817-0.41275-0.21167-0.762-0.39158-0.762-0.0635 0-0.254 0.29633-0.45508 0.3175-0.11642 0.01058-0.11642 0.14817-0.29633 0.60325l-1.6192 4.4768c-0.15875 0.43392-0.14817 0.48683-0.49742 0.64558-0.23283 0.10583-0.58208 0.15875-0.58208 0.3175 0 0.11642 0.14817 0.17992 0.34925 0.17992 0.15875 0 0.40217-0.0635 0.66675-0.0635 0.20108 0 0.66675 0.0635 0.86783 0.0635 0.26458 0 0.37042-0.0635 0.37042-0.17992 0-0.10583-0.11642-0.22225-0.39158-0.29633-0.30692-0.08467-0.29633-0.254-0.23283-0.4445l0.40217-1.1536c0.04233-0.10583 0.11642-0.11642 0.16933-0.11642h1.7674c0.08467 0 0.13758 0.03175 0.16933 0.127l0.30692 1.0054c0.05292 0.17992 0.07408 0.381-0.30692 0.56092-0.23283 0.10583-0.5715 0.15875-0.5715 0.3175 0 0.11642 0.20108 0.17992 0.33867 0.17992 0.3175 0 0.71967-0.0635 1.4182-0.0635z"/>
   <path d="m98.043 87.843c0-0.23283 0.46567-0.33867 0.92075-0.33867 1.5028 0 2.6987 1.143 2.6987 2.6882 0 1.3441-0.66675 2.7622-1.9262 2.7622-1.4182 0-1.6933-0.1905-1.6933-0.89958zm1.27-0.81492c-0.65617 0-1.4393 0.08467-2.0955 0.08467-0.3175 0-0.51858-0.01058-0.84667-0.01058-0.22225 0-0.37042 0.0635-0.37042 0.1905 0 0.09525 0.07408 0.14817 0.16933 0.17992 0.60325 0.17992 0.86783 0.17992 0.86783 0.78317v3.8629c0 0.39158-0.14817 0.60325-0.49742 0.762-0.23283 0.10583-0.58208 0.15875-0.58208 0.3175 0 0.11642 0.23283 0.16933 0.34925 0.17992 0.07408 0 0.6985-0.0635 1.1853-0.0635 0.48683 0 1.0478 0.11642 2.0532 0.11642 2.2754 0 3.302-1.6192 3.302-3.4502 0-1.7992-1.7568-2.9528-3.5348-2.9528z"/>
   <path d="m110.86 91.992-0.17992-3.4925c-0.0318-0.60325 0.0847-0.81492 0.41275-0.9525 0.42334-0.17992 0.508-0.21167 0.508-0.3175s-0.0423-0.17992-0.16933-0.17992c-0.33867 0-1.0689 0.10583-1.3441 0.10583-0.27517 0-0.42334 0-0.53975 0.24342l-1.6616 3.4502c-0.20108 0.40217-0.24341 0.23283-0.32808 0.01058l-1.2382-3.0374c-0.20108-0.47625-0.381-0.66675-0.66675-0.66675-0.48683 0-0.79375-0.05292-1.1748-0.05292-0.127 0-0.35983-0.01058-0.35983 0.14817 0 0.16933 0.381 0.32808 0.5715 0.508 0.26458 0.24342 0.43391 0.4445 0.33866 1.1959l-0.35983 2.8152c-0.0741 0.52917-0.254 0.9525-0.61383 1.1112-0.24342 0.10583-0.58209 0.15875-0.58209 0.3175 0 0.10583 0.23284 0.16933 0.34925 0.17992 0.0741 0 0.47625-0.0635 0.97367-0.0635 0.508 0 0.97367 0.0635 1.0478 0.0635 0.11642-0.01058 0.33867-0.07408 0.33867-0.17992 0-0.15875-0.34925-0.21167-0.58209-0.3175-0.27516-0.127-0.34925-0.64558-0.32808-0.93133l0.17992-2.9528c0.0106-0.26458 0.10583-0.41275 0.26458-0.01058l1.3018 3.3338c0.22225 0.5715 0.30692 0.65617 0.41275 0.65617 0.0953 0 0.53975-0.91017 0.58208-1.0054l1.4288-3.2808c0.0741-0.1905 0.26459-0.23283 0.27517-0.03175l0.13758 3.3337c0.0212 0.39158-0.13758 0.73025-0.49741 0.889-0.23284 0.10583-0.58209 0.15875-0.58209 0.3175 0 0.10583 0.23284 0.16933 0.34925 0.17992 0.0741 0 0.6985-0.0635 1.1959-0.0635 0.508 0 1.2065 0.0635 1.2806 0.0635 0.11642-0.01058 0.33867-0.07408 0.33867-0.17992 0-0.15875-0.34925-0.21167-0.58208-0.3175-0.35984-0.15875-0.47625-0.49742-0.49742-0.889z"/>
   <path d="m114.89 87.102c-0.35983 0-0.79375 0.05292-1.1642 0.05292-0.381 0-0.762-0.05292-1.1748-0.05292-0.15875 0-0.37041 0.0635-0.37041 0.1905 0 0.09525 0.0741 0.14817 0.16933 0.17992 0.60325 0.16933 0.86783 0.17992 0.86783 0.78317v3.8629c0 0.39158-0.13758 0.60325-0.49741 0.762-0.23284 0.10583-0.58209 0.15875-0.58209 0.3175 0 0.10583 0.23284 0.16933 0.34925 0.17992 0.0741 0 0.6985-0.0635 1.1959-0.0635 0.508 0 1.2065 0.0635 1.2806 0.0635 0.11642-0.01058 0.33867-0.07408 0.33867-0.17992 0-0.15875-0.34925-0.21167-0.58208-0.3175-0.35984-0.15875-0.49742-0.37042-0.49742-0.762v-3.8629c0-0.60325 0.27517-0.61383 0.87842-0.78317 0.0952-0.03175 0.15875-0.08467 0.15875-0.17992 0-0.127-0.21167-0.1905-0.37042-0.1905z"/>
   <path d="m117.3 91.992v-2.6988c0-0.23283 0.0847-0.22225 0.20109-0.10583l3.2914 3.6512c0.40217 0.4445 0.78317 0.635 0.89959 0.635 0.10583 0 0.21166-0.02117 0.21166-0.127 0-0.28575-0.0318-0.37042-0.0318-0.86783v-4.2228c0-0.61383 0.27517-0.61383 0.87842-0.78317 0.0952-0.03175 0.15875-0.08467 0.15875-0.17992 0-0.127-0.21167-0.1905-0.37042-0.1905-0.35983 0-0.58208 0.05292-0.9525 0.05292-0.381 0-0.55033-0.05292-0.96308-0.05292-0.15875 0-0.37042 0.0635-0.37042 0.1905 0 0.09525 0.0741 0.14817 0.16934 0.17992 0.60325 0.16933 0.86783 0.16933 0.86783 0.78317v3.2385c0 0.21167-0.15875 0.15875-0.29633 0l-3.5242-3.9582c-0.10584-0.11642-0.32809-0.381-0.56092-0.381h-1.1112c-0.14817 0-0.22225 0.03175-0.22225 0.11642 0 0.1905 0.40217 0.26458 0.635 0.508l0.39158 0.42333c0.11642 0.13758 0.14817 0.51858 0.14817 1.0266v2.7622c0 0.40217-0.13758 0.73025-0.49742 0.889-0.23283 0.10583-0.58208 0.15875-0.58208 0.3175 0 0.10583 0.23283 0.16933 0.34925 0.17992 0.0741 0 0.47625-0.0635 0.97367-0.0635 0.508 0 0.97366 0.0635 1.0478 0.0635 0.11641-0.01058 0.33866-0.07408 0.33866-0.17992 0-0.15875-0.34925-0.21167-0.58208-0.3175-0.35983-0.15875-0.49742-0.48683-0.49742-0.889z"/>
  </g>
 </g>
 </symbol>
 </defs>
</svg>
